<svg width="18" height="18" viewBox="0 0 18 18" fill="none" xmlns="http://www.w3.org/2000/svg">
<g clip-path="url(#clip0_1760_18)">
<path d="M1.69653 16.3035C-0.565528 14.0414 -0.565493 10.3608 1.69653 8.0987C3.24151 6.55372 5.51889 6.01724 7.5846 6.68595L14.1161 0.154512C14.165 0.105528 14.2232 0.0666703 14.2872 0.0401589C14.3512 0.0136474 14.4197 1.56858e-06 14.489 6.33335e-07L17.4726 7.63751e-07C17.7639 7.76484e-07 18 0.236145 18 0.527415L18 3.51099C18 3.65091 17.9444 3.78499 17.8455 3.88396L17.0995 4.62997C17.0432 4.68622 16.975 4.72902 16.8998 4.75515C16.8247 4.78129 16.7446 4.79009 16.6656 4.7809L15.8646 4.68781L15.76 5.79818C15.7485 5.92041 15.6947 6.0348 15.6078 6.12161C15.521 6.20843 15.4067 6.26224 15.2844 6.27377L14.1739 6.3785L14.267 7.17954C14.2756 7.25344 14.2684 7.32833 14.246 7.39928C14.2236 7.47023 14.1865 7.53563 14.137 7.5912C14.0875 7.64676 14.0268 7.69123 13.9589 7.72168C13.8911 7.75213 13.8175 7.76788 13.7431 7.76788L12.7609 7.76788L12.7609 8.73222C12.7609 8.87105 12.7062 9.00425 12.6086 9.10301L11.3133 10.4134C11.9831 12.4796 11.4467 14.7581 9.90126 16.3035C7.63924 18.5655 3.95855 18.5655 1.69653 16.3035ZM9.15542 15.5576C10.4866 14.2264 10.9021 12.2295 10.2141 10.4704C10.177 10.3754 10.1681 10.2716 10.1888 10.1717C10.2094 10.0718 10.2585 9.98004 10.3302 9.90749L11.7061 8.51555L11.7061 7.24043C11.7061 6.94916 11.9422 6.71302 12.2335 6.71302L13.1508 6.71302L13.0639 5.96489C13.0558 5.89514 13.0617 5.82447 13.0813 5.75702C13.1008 5.68958 13.1337 5.62672 13.1778 5.57214C13.222 5.51756 13.2767 5.47235 13.3386 5.43916C13.4004 5.40597 13.4683 5.38547 13.5382 5.37887L14.7507 5.26451L14.865 4.05211C14.8716 3.98219 14.8921 3.91429 14.9253 3.8524C14.9585 3.7905 15.0037 3.73586 15.0583 3.69167C15.1128 3.64748 15.1757 3.61463 15.2431 3.59506C15.3106 3.57548 15.3813 3.56957 15.451 3.57768L16.534 3.70361L16.9452 3.29249L16.9452 1.05479L14.7075 1.05479L8.09476 7.66758C8.02226 7.74008 7.9302 7.78989 7.82984 7.81089C7.72948 7.83189 7.62518 7.82319 7.52969 7.78584C5.77054 7.09777 3.77374 7.51335 2.44248 8.84454C0.59171 10.6954 0.59171 13.7068 2.44248 15.5576C4.29321 17.4083 7.30465 17.4083 9.15542 15.5576Z" fill="black"/>
<path d="M3.18829 14.8117C2.57133 14.1948 2.57137 13.1909 3.18829 12.574C3.80521 11.9571 4.80903 11.9571 5.42595 12.574C6.04287 13.1909 6.04294 14.1948 5.42595 14.8117C4.80903 15.4286 3.80521 15.4286 3.18829 14.8117ZM4.68008 14.0658C4.8857 13.8602 4.88574 13.5256 4.68008 13.3199C4.47445 13.1143 4.13986 13.1143 3.9342 13.3199C3.72804 13.5261 3.72804 13.8596 3.9342 14.0658C4.14036 14.272 4.47392 14.2719 4.68008 14.0658Z" fill="black"/>
</g>
<defs>
<clipPath id="clip0_1760_18">
<rect width="18" height="18" fill="white" transform="matrix(-4.37114e-08 1 1 4.37114e-08 0 0)"/>
</clipPath>
</defs>
</svg>
