<svg width="18" height="18" viewBox="0 0 18 18" fill="none" xmlns="http://www.w3.org/2000/svg">
<path d="M14.0625 6.60938H12.7956V3.71848C12.7956 1.66809 11.0923 0 8.9987 0C6.90511 0 5.20182 1.66809 5.20182 3.71848V6.60938H3.9375C2.77439 6.60938 1.82812 7.55564 1.82812 8.71875V15.8906C1.82812 17.0537 2.77439 18 3.9375 18H14.0625C15.2256 18 16.1719 17.0537 16.1719 15.8906V8.71875C16.1719 7.55564 15.2256 6.60938 14.0625 6.60938ZM6.60807 3.71848C6.60807 2.4435 7.68052 1.40625 8.9987 1.40625C10.3169 1.40625 11.3893 2.4435 11.3893 3.71848V6.60938H6.60807V3.71848ZM14.7656 15.8906C14.7656 16.2783 14.4502 16.5938 14.0625 16.5938H3.9375C3.5498 16.5938 3.23438 16.2783 3.23438 15.8906V8.71875C3.23438 8.33105 3.5498 8.01562 3.9375 8.01562H14.0625C14.4502 8.01562 14.7656 8.33105 14.7656 8.71875V15.8906Z" fill="black"/>
<path d="M9 10.0547C8.28158 10.0547 7.69922 10.6371 7.69922 11.3555C7.69922 11.8142 7.93687 12.2171 8.29557 12.4488V13.9922C8.29557 14.3805 8.61036 14.6953 8.9987 14.6953C9.387 14.6953 9.70182 14.3805 9.70182 13.9922V12.4504C10.062 12.2191 10.3008 11.8153 10.3008 11.3555C10.3008 10.6371 9.71842 10.0547 9 10.0547Z" fill="black"/>
</svg>
