<svg width="18" height="18" viewBox="0 0 18 18" fill="none" xmlns="http://www.w3.org/2000/svg">
<path d="M12.6269 0H5.35497C4.67101 0 4.09497 0.558 4.09497 1.26V16.74C4.09497 17.424 4.65297 18 5.35497 18H12.645C13.3289 18 13.905 17.442 13.905 16.74V1.26C13.8869 0.558 13.3289 0 12.6269 0ZM8.99094 0.990035C9.1889 0.990035 9.35097 1.15211 9.35097 1.35007C9.35097 1.54804 9.1889 1.71011 8.99094 1.71011C8.79297 1.71011 8.6309 1.54804 8.6309 1.35007C8.6309 1.15211 8.79297 0.990035 8.99094 0.990035ZM10.071 17.01H7.91108V16.2899H10.071V17.01ZM13.1671 15.282H4.79697V2.71796H13.1671V15.282Z" fill="black"/>
</svg>
