<svg width="18" height="18" viewBox="0 0 18 18" fill="none" xmlns="http://www.w3.org/2000/svg">
<rect width="18" height="18" rx="2" fill="#0A92A5"/>
<path d="M13.9751 8.28156L14.0145 8.1249C14.0994 7.75928 14.1419 7.38493 14.1419 7.00496C14.1419 6.85534 14.1329 6.70656 14.1146 6.55187C14.1104 6.54112 14.1075 6.52987 14.1062 6.5184C13.9981 5.62976 13.5965 4.80264 12.9649 4.16828C12.2074 3.41087 11.5954 3.00024 10.5332 3.00024H7.90685C7.65738 3.05621 7.48272 3.19065 7.35335 3.40862C7.20724 3.65557 7.13103 3.9376 7.13285 4.22453C7.13397 4.30721 7.13285 5.23899 7.13285 5.23899H9.5516C9.61769 5.23899 9.68351 5.24237 9.7496 5.24799C9.76387 5.24943 9.77788 5.25284 9.79122 5.25812C10.1003 5.38299 10.3886 5.43924 10.6608 5.66678C10.919 5.88224 11.1163 6.16148 11.2332 6.47678C11.4897 7.17737 11.2644 7.94743 10.6822 8.41206C10.2176 8.78274 9.51954 8.87218 8.81529 8.87218C8.46372 8.87218 8.11076 8.84996 7.78422 8.82943C7.56722 8.81492 7.34996 8.80451 7.13257 8.79821V11.033H10.5132C12.1886 11.0277 13.5153 9.97356 13.9748 8.28212L13.9751 8.28156Z" fill="white"/>
<path d="M4 5.98687V14.2022C4 14.5979 4.16819 14.9793 4.46181 15.2479C4.60824 15.3828 4.78141 15.4855 4.9701 15.5492C5.15878 15.6128 5.35874 15.6361 5.557 15.6174C6.28319 15.5544 6.85188 14.9216 6.85188 14.1769V4.75669C6.85188 4.22512 6.83894 3.64181 7.16491 3.21628C7.22698 3.13529 7.2992 3.0626 7.37978 3H6.6775C6.01319 3.06919 5.36997 3.37575 4.88087 3.86175C4.64357 4.09998 4.44749 4.37599 4.30066 4.6785C4.18685 4.9151 4.10377 5.16529 4.05344 5.42297C4.018 5.60887 4 5.799 4 5.98687Z" fill="white"/>
</svg>
